<svg xmlns="http://www.w3.org/2000/svg" viewBox="0 -0.5 160 160" shape-rendering="crispEdges">
<metadata>Made with Pix2d https://pix2d.com</metadata>
<path stroke="#353540" d="M70 40h20M70 41h20M70 42h20M70 43h20M70 44h20M70 45h20M70 46h20M70 47h20M70 48h20M70 49h20M70 50h20M70 51h20M70 52h20M70 53h20M70 54h20M70 55h20M70 56h20M70 57h20M70 58h20M70 59h20M70 60h20M70 61h20M70 62h20M70 63h20M70 64h20M70 65h20M70 66h20M70 67h20M70 68h20M70 69h20M70 70h20M70 71h20M70 72h20M70 73h20M70 74h20M70 75h20M70 76h20M70 77h20M70 78h20M70 79h20M50 80h60M50 81h60M50 82h60M50 83h60M50 84h60M50 85h60M50 86h60M50 87h60M50 88h60M50 89h60M60 90h40M60 91h40M60 92h40M60 93h40M60 94h40M60 95h40M60 96h40M60 97h40M60 98h40M60 99h40M70 100h20M70 101h20M70 102h20M70 103h20M70 104h20M70 105h20M70 106h20M70 107h20M70 108h20M70 109h20" />
</svg>