<svg viewBox="0 0 16 16" xmlns="http://www.w3.org/2000/svg">
    <path d="M6.16691 8C5.94687 8.00026 5.73591 8.0878 5.58031 8.24339C5.42471 8.39899 5.33718 8.60995 5.33691 8.83C5.33691 9.289 5.70891 9.67 6.16691 9.661C6.38219 9.65353 6.58615 9.56276 6.7358 9.40783C6.88545 9.25289 6.96909 9.0459 6.96909 8.8305C6.96909 8.6151 6.88545 8.40811 6.7358 8.25317C6.58615 8.09824 6.38219 8.00747 6.16691 8ZM8.00991 11.647C8.32491 11.647 9.41291 11.609 9.98591 11.036C10.023 10.9937 10.0435 10.9393 10.0435 10.883C10.0435 10.8267 10.023 10.7723 9.98591 10.73C9.96606 10.7095 9.94228 10.6932 9.91599 10.6821C9.88971 10.6709 9.86146 10.6652 9.83291 10.6652C9.80437 10.6652 9.77612 10.6709 9.74983 10.6821C9.72355 10.6932 9.69977 10.7095 9.67991 10.73C9.32691 11.093 8.55391 11.217 8.00991 11.217C7.46491 11.217 6.70191 11.093 6.33891 10.73C6.31906 10.7095 6.29528 10.6932 6.26899 10.6821C6.24271 10.6709 6.21446 10.6652 6.18591 10.6652C6.15737 10.6652 6.12912 10.6709 6.10283 10.6821C6.07655 10.6932 6.05277 10.7095 6.03291 10.73C6.01241 10.7499 5.99611 10.7736 5.98497 10.7999C5.97384 10.8262 5.9681 10.8545 5.9681 10.883C5.9681 10.9115 5.97384 10.9398 5.98497 10.9661C5.99611 10.9924 6.01241 11.0161 6.03291 11.036C6.59691 11.599 7.68491 11.646 8.00991 11.646V11.647ZM9.00191 8.84C9.00191 9.298 9.37491 9.67 9.83291 9.67C10.2909 9.67 10.6629 9.289 10.6629 8.84C10.6525 8.62692 10.5604 8.42602 10.4059 8.27891C10.2514 8.1318 10.0463 8.04976 9.83291 8.04976C9.61958 8.04976 9.41441 8.1318 9.2599 8.27891C9.10539 8.42602 9.01338 8.62692 9.00291 8.84H9.00191Z"/>
    <path d="M16 8C16 10.1217 15.1571 12.1566 13.6569 13.6569C12.1566 15.1571 10.1217 16 8 16C5.87827 16 3.84344 15.1571 2.34315 13.6569C0.842855 12.1566 0 10.1217 0 8C0 5.87827 0.842855 3.84344 2.34315 2.34315C3.84344 0.842855 5.87827 0 8 0C10.1217 0 12.1566 0.842855 13.6569 2.34315C15.1571 3.84344 16 5.87827 16 8V8ZM12.172 6.835C11.857 6.835 11.57 6.959 11.36 7.16C10.559 6.587 9.46 6.215 8.239 6.167L8.773 3.666L10.511 4.038C10.5186 4.20028 10.5737 4.35675 10.6694 4.48802C10.7652 4.61928 10.8973 4.71958 11.0495 4.77646C11.2016 4.83334 11.3672 4.84432 11.5255 4.80802C11.6839 4.77173 11.8281 4.68976 11.9403 4.57228C12.0525 4.45479 12.1278 4.30697 12.1568 4.14711C12.1858 3.98726 12.1672 3.82242 12.1034 3.67302C12.0396 3.52361 11.9333 3.39622 11.7978 3.30662C11.6623 3.21703 11.5035 3.16918 11.341 3.169C11.1856 3.16954 11.0335 3.2137 10.902 3.29643C10.7704 3.37917 10.6648 3.49717 10.597 3.637L8.659 3.227C8.63291 3.22138 8.60597 3.22096 8.57971 3.22576C8.55346 3.23057 8.52841 3.2405 8.506 3.255C8.48264 3.26958 8.46281 3.28916 8.44794 3.31233C8.43306 3.33551 8.42352 3.36169 8.42 3.389L7.828 6.177C6.588 6.215 5.47 6.587 4.658 7.169C4.448 6.969 4.162 6.845 3.848 6.845C3.58171 6.84461 3.32334 6.93561 3.11608 7.10281C2.90881 7.27001 2.76521 7.50327 2.70925 7.76362C2.65329 8.02397 2.68838 8.29564 2.80864 8.53323C2.9289 8.77082 3.12706 8.95994 3.37 9.069C3.35 9.184 3.341 9.299 3.341 9.422C3.341 11.217 5.432 12.678 8.01 12.678C10.587 12.678 12.678 11.227 12.678 9.422C12.678 9.308 12.668 9.184 12.649 9.069C13.05 8.888 13.337 8.477 13.337 8C13.337 7.35 12.812 6.835 12.172 6.835V6.835Z"/>
</svg>
