<svg width="20" height="20" viewBox="0 0 20 20" fill="none" xmlns="http://www.w3.org/2000/svg">
    <path d="M16.2001 8.3999C17.2001 8.2999 18.0001 9.0999 18.0001 10.0999C18.0001 10.7999 17.6001 11.3999 17.0001 11.6999V12.1999C17.0001 14.8999 13.9001 17.0999 10.0001 17.0999C6.1001 17.0999 3.0001 14.8999 3.0001 12.1999V11.6999C2.8001 11.6999 2.6001 11.4999 2.5001 11.3999C1.8001 10.6999 1.8001 9.5999 2.5001 8.8999C3.2001 8.1999 4.3001 8.1999 5.0001 8.8999C6.4001 7.8999 8.0001 7.3999 9.7001 7.3999L10.7001 3.0999C10.7001 2.9999 10.7001 2.8999 10.8001 2.8999H11.0001L13.8001 3.5999C14.0001 3.1999 14.4001 2.8999 14.9001 2.8999C15.6001 2.8999 16.2001 3.3999 16.2001 4.0999C16.2001 4.7999 15.7001 5.3999 15.0001 5.3999C14.3001 5.3999 13.7001 4.8999 13.7001 4.1999L11.1001 3.5999L10.3001 7.3999C12.0001 7.3999 13.6001 7.9999 15.0001 8.8999C15.3001 8.5999 15.8001 8.3999 16.2001 8.3999ZM7.2 10.2C6.6 10.2 6 10.7 6 11.4C6 12.1 6.5 12.6 7.2 12.6C7.8 12.6 8.4 12 8.4 11.4C8.4 10.8 7.9 10.2 7.2 10.2ZM10 15.6C11.1 15.7 12.1 15.3 13 14.7C13.1 14.5 13.1 14.3 12.9 14.2C12.7 14.1 12.5 14.1 12.4 14.2C11.7 14.7 10.8 15 9.9 14.9C9 15 8.1 14.7 7.4 14.2C7.3 14.1 7.1 14.1 7 14.2C6.9 14.4 6.9 14.6 7 14.7C7.9 15.3 8.9 15.6 10 15.6ZM11.5 11.4C11.5 12 12 12.6 12.7 12.6C13.4 12.6 14 12.1 13.9 11.4C13.9 10.8 13.4 10.2 12.7 10.2C12.1 10.2 11.5 10.8 11.5 11.4Z"/>
</svg>
